<?xml version="1.0" encoding="utf-8"?>
<!-- Generator: Adobe Illustrator 22.0.1, SVG Export Plug-In . SVG Version: 6.00 Build 0)  -->
<svg version="1.1" id="Layer_1" xmlns="http://www.w3.org/2000/svg" xmlns:xlink="http://www.w3.org/1999/xlink" x="0px" y="0px"
	 viewBox="0 0 960 960" style="enable-background:new 0 0 960 960;" xml:space="preserve">
<style type="text/css">
	.st0{fill:#FFFFFF;}
	.st1{fill:#C92327;}
</style>
<rect x="-0.5" class="st0" width="963.5" height="961"/>
<g>
	<g>
		<path d="M744.2,686.4c-55.6-31-124-46.6-204.7-46.2c-80.6,0.4-156.5,17.7-227.1,52.5c-6.6,4-14.3,2.1-21.4-5.8
			c-2.5-3.6,13.5-26.5,18.4-29.6c82.8-30.9,163.2-46.1,241.8-44.9c77.6,1.9,145.7,16.1,203.2,44c15.9-42.1,35.8-91.8,59.4-149.8
			l0.5-1.5c-30.6,43.5-58.2,66.8-81.1,70c-18.3,3-30.8-4.6-35.8-22.9s-1.4-42.1,12.4-71.6c21-46,48.3-82,81.7-107.1
			c33.6-25.8,62.2-36.7,85.6-32.5c9.7,2.6,14.5,8.3,14.5,17.2c17.9-19.3,34.7-28.8,50.7-29.5c6.6,0.5,7.1,3.4,0.7,8.9
			c-12.2,11.6-32.7,45-59.3,98.7c-44,84.8-80,161.8-107.7,231.8c35.8,20.7,60.9,46.3,75.6,76c18,40,14.8,82.3-10,128.5
			c-17.9,32.6-39.8,55-66.3,66.4c-25.5,10.7-45,6.3-60.3-13C690.1,893.8,700.2,813.4,744.2,686.4z M865,396.4
			c12-24.2,12.8-44.2-1.4-44.4c-24.4-1.2-74.2,49.7-106.9,117c-22.8,49.1-19.8,82.3,0.1,77c10.7-2.7,26.8-18.9,47.4-48.6
			c20.7-29.7,41.1-63.2,60.3-99.5L865,396.4z M764.8,698.9c-45.6,122.6-53.9,193.2-23.4,212c16.8,10.4,34.6,6.7,54.5-11.9
			c22.9-21,34.7-48.8,36.3-82.2c0.5-17-2.5-32.5-8.5-47.8C812.5,742,792.8,718.5,764.8,698.9z"/>
	</g>
	<path d="M756.9,274.8c-7-7.8-14.6-9.8-21.2-5.8c-70.1,34.8-145.4,52-225.5,52.4c-79.1,0.4-146.3-14.9-201.2-45.2
		c-1.2-0.6-1.7-2-1.2-3.3C351,147.3,360.8,67.6,336,35.5c-15.1-19.4-34.5-23.7-59.8-13c-26.3,11.5-48.1,33.8-65.9,66.4
		c-24.6,46.2-27.8,88.5-10,128.5c14.3,29.2,38.6,54.4,73.1,74.9c1.1,0.7,1.6,2,1.1,3.2c-9.5,24.1-20.8,48.6-31.4,74.7
		c-14.9,34.7-36.7,84.1-65.1,148.7c-13.5,29-20.4,46.7-21.1,51.8c-0.7,5.1,2.4,6.2,9.2,3.2c12.7-4.8,18.7-11.7,29-32.2
		c16.7-28.6,35.2-53.8,54.7-75.6c20.3-22.4,35.3-35.2,46.5-38.8c3.1-0.6,5.4-0.7,7-0.2c2.3,1.6-1.6,12.4-11.8,32.4
		c-8.7,17.7-16.1,33.1-21.2,45.6c-19.7,46.1-16,72.5,8.2,68c34.5-5.8,79.9-49.7,118.1-127.8c4.8-8.6-3.3-8.4-8.2,0.2
		c-42.5,77-78.8,113.4-93.2,108.6c-10.4-1.5-6.6-24.7,9.5-61.1l27.9-57.6c17.9-34.8,20-42.2,6.8-44.1
		c-28.7-2.2-75.5,37.7-121.4,100.2c15.2-33.5,33.9-72.5,52.5-118.3l0,0l0.2-0.4c9.2-23.4,17.7-45.1,25.2-65c0.5-1.4,2.1-2,3.5-1.4
		c56.5,27.1,123.3,41,199.2,42.9c77.9,1.2,157.7-14,239.7-44.7c0.2-0.1,0.4-0.2,0.6-0.3C744.1,300.4,759.4,278.3,756.9,274.8z
		 M287.9,259.3c-0.6,1.7-2.7,2.3-4.1,1.3c-26.2-19.2-44.9-42-55.5-68c-6-15.3-9-30.7-8.5-47.8c1.6-33.4,13.3-61.3,36.1-82.2
		C275.6,44,293.3,40.3,310,50.7C339.9,69.2,332.1,138.8,287.9,259.3z"/>
	<path class="st1" d="M506.2,387.7l-73.7,180.5l-5.3-1.5l68.4-184.4c-10.3-4.5-21.4-7.5-33-8.6l-47.8,198l-5.5-0.9l40.8-197.6
		c-0.9,0-1.8,0-2.6,0c-59.6,2.5-105.9,52.9-103.3,112.5c2.5,59.6,52.9,105.9,112.5,103.3c59.6-2.5,105.9-52.9,103.3-112.5
		C558.5,438.3,537.1,405.5,506.2,387.7z"/>
	<path d="M293.1,471.5"/>
	<g>
		<path class="st1" d="M242.4,650.6c-2.6,6.9-7.4,14.1-14.4,21.5c-7,7.4-13.5,11.3-19.5,11.7c-3.4,0.2-5.2-1.3-5.4-4.5
			c-0.1-2.3,1.3-7.4,4.4-15.5c3.1-8.1,4.5-14.4,4.2-18.9c-0.2-4.1-1.6-7.7-4-10.9c-2.4-3.2-5.1-5.5-7.9-7.1
			c-2.8-1.5-5.5-3.1-7.9-4.7c-2.4-1.6-3.8-3-4-4.3c0-0.3,0.3-1.5,0.9-3.8c0.6-2.2,0.9-3.6,0.9-4.2c-0.1-1.2-0.6-2.6-1.6-4.2
			c-1-1.6-2.2-2.4-3.5-2.3c-2.1,0.1-4.1,1.9-6.1,5.3c-2,3.4-2.9,6.9-2.7,10.6c0.1,2.4,1,4.2,2.4,5.5c-2.5,8.8-5.2,17.1-8.3,25
			c-10.4,22.8-20.2,34.2-29.3,34.2c-3.6,0-5.5-2-5.5-6c0-2.3,1.2-7.5,3.7-15.6c2.5-8.2,3.7-14.3,3.7-18.5c0-4.8-1.2-8.9-3.6-12.1
			c-2.4-3.2-6.2-4.8-11.4-4.8c-11,0-21.6,7.7-31.8,23.2c2.4-7.7,3.6-13.7,3.6-18c0-12.6-4.6-18.9-13.8-18.9
			c-12.1,0-26.3,11.5-42.7,34.3c2.1-8.3,3.1-13.7,3.1-16.1c0-2.3-0.7-4.1-2.1-5.4c-1.4-1.4-3.2-2-5.4-2c-2.2,0-4.7,0.6-7.3,1.9
			c-2.7,1.3-4.3,2.8-4.8,4.4c-0.6,2.2-5.2,21.4-14,57.5c0,1,1.8,2.3,5.4,3.8c3.6,1.5,6.7,2.3,9.4,2.3c5.2-14.8,13-29,23.5-42.5
			C61.3,637.8,69.5,631,75.5,631c3.1,0,4.6,2.2,4.6,6.7c0,5.4-2.4,14.8-7.2,28c-4.8,13.3-7.2,20.4-7.2,21.5c0,1.8,1.5,3.2,4.6,4.2
			c3.1,1.1,5.9,1.6,8.6,1.6c0.7-1.2,2.4-4.4,5.1-9.5c2.7-5.2,5-9.1,6.8-11.7c7.2-11,12.9-18.9,17.2-23.6c4.2-4.8,8-7.2,11.2-7.2
			c3.4,0,5,2.2,5,6.7c0,2.6-1,7.3-3.1,14.2c-2.1,6.9-3.1,12.1-3.1,15.5c0,5,1.5,9.2,4.4,12.5c2.9,3.3,7.1,4.9,12.5,4.9
			c8.6,0,16.2-4,22.9-12.1c3.3-4.1,6.4-8.6,9.1-13.4c0,0,12.9-26,17.4-39.9c7.1,3.2,10.8,7.5,11.1,12.9c0.2,3.2-1.4,9.4-4.8,18.5
			c-3.4,9.1-5,15.7-4.7,19.8c0.3,4.6,2.1,8.2,5.4,10.7c3.3,2.6,7.5,3.7,12.6,3.4c8.8-0.5,17.3-4.9,25.7-13.1
			c8.4-8.2,14.4-17.4,18.1-27.4L242.4,650.6z"/>
		<circle class="st1" cx="269.3" cy="683.8" r="11.2"/>
	</g>
	<g>
		<g>
			<line x1="673.6" y1="904.7" x2="12.6" y2="904.7"/>
			
				<image style="overflow:visible;" width="2755" height="20" xlink:href="3E839ADC.png"  transform="matrix(0.24 0 0 0.24 12.72 902.64)">
			</image>
		</g>
		<path d="M20.5,774.9c0.1,0.9,0.2,1.7,0.2,2.5v23.3c1.8,0.3,3,0.5,3.5,0.6c0.5,0.1,0.7,0.4,0.7,0.9v2.3H12.6v-2.3
			c0-0.5,0.3-0.8,0.8-0.9l2.9-0.6v-29.2c-1.6-0.3-2.6-0.5-2.9-0.6c-0.5-0.1-0.8-0.4-0.8-0.9v-2.3H20c0.4,0,0.8,0.1,1,0.2
			c0.2,0.1,0.5,0.3,0.7,0.7l12.6,22.6c0.3,0.5,0.7,1.4,1.2,2.7c0.4-1,0.8-1.9,1.2-2.7l12.4-22.6c0.2-0.4,0.5-0.6,0.7-0.7
			c0.2-0.1,0.6-0.2,1-0.2h7.4v2.3c0,0.5-0.3,0.8-0.8,0.9l-2.9,0.6v29.2c1.6,0.3,2.6,0.5,2.9,0.6c0.5,0.1,0.8,0.4,0.8,0.9v2.3H45.9
			v-2.3c0-0.5,0.3-0.8,0.8-0.9c0.5-0.1,1.6-0.3,3.4-0.6v-23.2c0-0.7,0-1.6,0.1-2.4L37.6,798c-0.4,0.8-1,1.2-1.7,1.2h-0.7
			c-0.8,0-1.4-0.4-1.8-1.2L20.5,774.9L20.5,774.9z"/>
		<path d="M120,785.7c0,2.8-0.4,5.2-1.3,7.5c-0.9,2.3-2.1,4.3-3.7,5.9c-1.6,1.6-3.4,2.9-5.7,3.8c-2.3,0.9-4.7,1.4-7.4,1.4
			c-2.7,0-5.1-0.5-7.4-1.4c-2.3-0.9-4.1-2.2-5.7-3.8c-1.6-1.6-2.8-3.6-3.7-5.9c-0.9-2.3-1.3-4.8-1.3-7.6c0-2.8,0.5-5.3,1.3-7.6
			c0.9-2.3,2.1-4.3,3.7-5.9c1.6-1.6,3.5-3,5.7-3.9c2.3-0.9,4.7-1.4,7.4-1.4c2.7,0,5.1,0.5,7.4,1.4c2.3,0.9,4.1,2.2,5.7,3.8
			c1.6,1.6,2.8,3.6,3.7,5.9c0.9,2.3,1.3,4.8,1.3,7.6L120,785.7z M114.9,785.7c0-2.3-0.3-4.3-0.9-6.1c-0.6-1.8-1.4-3.3-2.6-4.6
			c-1.1-1.2-2.5-2.2-4.1-2.8c-1.6-0.7-3.5-1-5.4-1c-1.9,0-3.7,0.3-5.3,1c-1.6,0.7-3,1.6-4.1,2.8c-1.1,1.2-2,2.8-2.7,4.6
			c-0.6,1.8-0.9,3.8-0.9,6.1c0,2.3,0.3,4.3,0.9,6c0.6,1.8,1.5,3.3,2.7,4.5c1.1,1.2,2.5,2.2,4.1,2.9c1.6,0.7,3.4,1,5.4,1
			c1.9,0,3.7-0.4,5.4-1c1.6-0.7,3-1.6,4.1-2.9c1.1-1.2,2-2.7,2.6-4.5C114.6,789.9,114.9,787.9,114.9,785.7L114.9,785.7z"/>
		<path d="M180,793.6c-0.9,2.3-2.1,4.1-3.7,5.8c-3.3,3.4-7.6,5-13.1,5h-17v-2.2c0-0.5,0.3-0.9,0.8-1l2.9-0.6v-29.2
			c-1.6-0.3-2.6-0.5-2.9-0.6c-0.5-0.1-0.8-0.5-0.8-1v-2.2h17c5.4,0,9.8,1.6,13.1,5c3.3,3.4,5,7.8,5,13.3
			C181.4,788.8,180.9,791.4,180,793.6z M175.3,780c-0.6-1.7-1.4-3.3-2.6-4.5c-2.3-2.6-5.5-3.8-9.5-3.8H155v28.7h8.2
			c4,0,7.1-1.2,9.5-3.8c2.4-2.6,3.5-6,3.5-10.6C176.2,783.8,175.9,781.8,175.3,780z"/>
		<path d="M178.7,869.4c0.5,0.1,0.8,0.5,0.8,0.9v2.3h-0.9h-2.8h-1.6c-0.9,0-1.5-0.4-1.9-1.1l-9.5-13.1c-0.3-0.4-0.6-0.7-0.9-0.9
			c-0.3-0.2-0.8-0.3-1.5-0.3h-3.3v11.6c0,0,2.5,0.5,2.9,0.6c0.5,0.1,0.8,0.5,0.8,0.9v2.2h-3.7h-5h-3.7v-2.2c0-0.5,0.3-0.8,0.8-0.9
			c0.5-0.1,3-0.6,3-0.6v-29.2c0,0-2.5-0.5-3-0.6c-0.5-0.1-0.8-0.5-0.8-0.9v-2.3h3.7h9.9c2.4,0,4.4,0.3,6,0.7c1.7,0.5,3.1,1.1,4.2,2
			c1.1,0.9,1.9,2,2.5,3.2c0.5,1.2,0.8,2.7,0.8,4.3c0,1.3-0.2,2.5-0.6,3.6c-0.4,1.1-1,2.2-1.8,3.1c-0.8,0.9-1.7,1.7-2.8,2.3
			c-1.1,0.6-2.4,1.2-3.8,1.5c0.6,0.4,1.1,0.8,1.6,1.5l7.9,10.9C176.2,869,178.3,869.3,178.7,869.4L178.7,869.4z M161.5,853.6
			c1.4,0,2.7-0.2,3.8-0.5c1.1-0.4,2-0.9,2.8-1.5c0.7-0.6,1.3-1.3,1.7-2.3c0.4-0.9,0.6-1.9,0.6-3c0-2.2-0.7-3.8-2.2-4.9
			c-1.4-1.1-3.5-1.6-6.4-1.6h-5v13.8H161.5L161.5,853.6z"/>
		<path d="M229.9,767.7v8.9h-2.5c-0.6,0-1-0.3-1.1-0.9c0-0.2-0.2-1.5-0.4-3.9h-13.7V784h13.5v3.9h-13.5v12.5H226
			c0.2-2.3,0.3-3.5,0.3-3.7c0.1-0.6,0.5-0.8,1.1-0.8h2.5v8.5h-26.3v-2.2c0-0.5,0.3-0.9,0.8-1l2.9-0.6v-29.2
			c-1.6-0.3-2.6-0.5-2.9-0.6c-0.5-0.1-0.8-0.5-0.8-1v-2.2H229.9z"/>
		<path d="M229.9,835.9v8.9h-2.5c-0.6,0-1-0.3-1.1-0.9c0-0.2-0.2-1.5-0.4-3.9h-13.7v12.2h13.5v3.9h-13.5v12.5H226
			c0.2-2.3,0.3-3.5,0.3-3.7c0.1-0.6,0.5-0.8,1.1-0.8h2.5v8.5h-26.3v-2.2c0-0.5,0.3-0.9,0.8-1l2.9-0.6v-29.2
			c-1.6-0.3-2.6-0.5-2.9-0.6c-0.5-0.1-0.8-0.5-0.8-1v-2.2H229.9z"/>
		<path d="M284.6,801.2c0.5,0.1,0.8,0.5,0.8,0.9v2.3h-0.9h-2.8h-1.6c-0.9,0-1.5-0.4-1.9-1.1l-9.5-13.1c-0.3-0.4-0.6-0.7-0.9-0.9
			c-0.3-0.2-0.8-0.3-1.5-0.3h-3.3v11.6c0,0,2.5,0.5,2.9,0.6c0.5,0.1,0.8,0.5,0.8,0.9v2.2h-3.7h-5h-3.7v-2.2c0-0.5,0.3-0.8,0.8-0.9
			c0.5-0.1,3-0.6,3-0.6v-29.2c0,0-2.5-0.5-3-0.6c-0.5-0.1-0.8-0.5-0.8-0.9v-2.3h3.7h9.9c2.4,0,4.4,0.3,6,0.7c1.7,0.5,3.1,1.1,4.2,2
			c1.1,0.9,1.9,2,2.5,3.2c0.5,1.2,0.8,2.7,0.8,4.3c0,1.3-0.2,2.5-0.6,3.6c-0.4,1.1-1,2.2-1.8,3.1c-0.8,0.9-1.7,1.7-2.8,2.3
			c-1.1,0.6-2.4,1.2-3.8,1.5c0.6,0.4,1.1,0.8,1.6,1.5l7.9,10.9C282.1,800.8,284.3,801.1,284.6,801.2L284.6,801.2z M267.5,785.5
			c1.4,0,2.7-0.2,3.8-0.5c1.1-0.4,2-0.9,2.8-1.5c0.7-0.6,1.3-1.3,1.7-2.3c0.4-0.9,0.6-1.9,0.6-3c0-2.2-0.7-3.8-2.2-4.9
			c-1.4-1.1-3.5-1.6-6.4-1.6h-5v13.8H267.5L267.5,785.5z"/>
		<path d="M275.7,852.8c3.7,1.6,5.5,4.4,5.5,8.2c0,3.4-1,6.1-3.2,8.2c-2.3,2.3-5.3,3.3-9.1,3.3c-1.6,0-3.3-0.2-5-0.5
			c-1.7-0.3-3.1-0.7-4.1-1l-1.5-0.5v-9.2h2.5c0.6,0,0.9,0.3,1,0.9c0.1,0.2,0.2,1.1,0.3,2.5c0.1,1.4,0.2,2.3,0.2,2.3
			c2.6,0.9,4.6,1.4,6.2,1.4c1.6,0,2.9-0.2,3.8-0.5c0.9-0.3,1.7-0.8,2.4-1.4c1.3-1.2,1.9-2.8,1.9-4.9c0-1.9-0.9-3.5-2.8-4.5
			c-0.8-0.5-1.7-0.9-2.8-1.2c-3.3-1-5.4-1.7-6.5-2.2c-1-0.5-2-1.1-2.8-1.8c-1.8-1.6-2.7-3.9-2.7-6.9c0-2.8,1-5,2.9-7
			c2.1-2,4.8-3.1,8.2-3.1c3.4,0,6.8,0.6,10.3,2v8.5h-2.5c-0.6,0-1-0.3-1.1-0.9c0-0.1-0.2-1.6-0.4-4.6c-2.3-0.6-4.3-1-6-1
			c-2.2,0-3.9,0.5-5.1,1.6c-1.1,1-1.7,2.5-1.7,4.1c0,1.8,0.9,3.2,2.8,4.3c0.8,0.5,1.8,0.9,2.9,1.3c3.1,1,5.2,1.8,6.5,2.3H275.7z"/>
		<path d="M335.2,796.3c-0.1-0.7-0.1-1.6-0.1-2.6v-22.2c-2-0.3-3.1-0.6-3.4-0.6c-0.5-0.1-0.8-0.4-0.8-0.9v-2.3h4.2h4.4h3.7v2.3
			c0,0.5-0.3,0.8-0.8,0.9l-2.9,0.6v32.9h-2.5c-0.7,0-1.2-0.3-1.7-0.9l-21.3-27.7c0.1,0.9,0.1,1.6,0.1,2.4v22.4
			c2,0.3,3.2,0.6,3.4,0.6c0.5,0.1,0.7,0.4,0.7,0.9v2.2H306v-2.2c0-0.5,0.3-0.8,0.8-0.9l2.9-0.6v-29.2c-1.6-0.3-2.6-0.5-2.9-0.6
			c-0.5-0.1-0.8-0.5-0.8-1v-2.2h6.2c0.4,0,0.8,0,1,0.2c0.2,0.1,0.5,0.4,0.8,0.7l21.2,27.7V796.3z"/>
		<path d="M339.7,835.9v8.1h-2.5c-0.6,0-0.9-0.2-1-0.5c-0.1-0.4-0.3-1.4-0.5-3.4h-8.6v28.8c0,0,0.2,0,0.6,0.1
			c1.3,0.3,2.2,0.4,2.6,0.5c0.4,0.1,0.5,0.4,0.5,0.9v2.2h-12.4v-2.2c0-0.5,0.3-0.9,0.9-1c0.6-0.1,1.5-0.3,2.8-0.6v-28.8h-8.7
			c-0.2,1.9-0.4,3.1-0.5,3.4s-0.4,0.5-1,0.5h-2.5v-8.1h27.7h1.7H339.7z"/>
		<path d="M399,870.5v2h-10.6v-2c0-0.5,0.3-0.7,0.7-0.8l2.1-0.6l-2.9-7.4h-15.8l-2.9,7.4l2.1,0.6c0.5,0.1,0.7,0.4,0.7,0.8v2H362v-2
			c0-0.5,0.3-0.7,0.7-0.8l2-0.6l13.3-33.2h5l13.3,33.2l2,0.6C398.8,869.8,399,870.1,399,870.5z M387,858.2l-5.4-14.1
			c-0.4-0.9-0.8-2-1.1-3.4c-0.4,1.5-0.7,2.7-1,3.5l-5.5,14.1H387z"/>
		<path class="st1" d="M454.3,802.4v2h-10.6v-2c0-0.5,0.3-0.7,0.7-0.8l2.1-0.6l-2.9-7.4h-15.8l-2.9,7.4l2.1,0.6
			c0.5,0.1,0.7,0.4,0.7,0.8v2h-10.5v-2c0-0.5,0.3-0.7,0.7-0.8l2-0.6l13.3-33.2h5l13.3,33.2l2,0.6C454,801.7,454.3,801.9,454.3,802.4
			z M442.3,790l-5.4-14.1c-0.4-0.9-0.8-2-1.1-3.4c-0.4,1.5-0.7,2.7-1,3.5l-5.5,14.1H442.3z"/>
		<path d="M454.1,835.5v2.2c0,0.5-0.3,0.9-0.8,1l-2.9,0.6v18.6c0,4.3-1.3,7.8-3.9,10.6c-2.7,2.8-6.2,4.3-10.7,4.3
			c-4.4,0-8-1.4-10.7-4.3c-2.6-2.8-3.9-6.2-3.9-10.6v-18.6c-1.6-0.3-2.6-0.5-2.9-0.6c-0.5-0.1-0.8-0.5-0.8-1v-2.2h12.9v2.2
			c0,0.5-0.3,0.9-0.8,1c-0.3,0-1.3,0.3-3.4,0.6v18.5c0,3.1,0.8,5.7,2.6,7.6c1.7,1.9,4.1,2.9,7.1,2.9s5.4-1,7.1-2.9
			c1.7-1.9,2.6-4.4,2.6-7.5v-18.6c-2-0.3-3.1-0.5-3.4-0.6c-0.5-0.1-0.8-0.5-0.8-1v-2.2h4.2h4.9H454.1z"/>
		<path class="st1" d="M497.8,784.6c3.7,1.6,5.5,4.4,5.5,8.2c0,3.4-1,6.1-3.2,8.2c-2.3,2.3-5.3,3.3-9.1,3.3c-1.6,0-3.3-0.2-5-0.5
			c-1.7-0.3-3.1-0.7-4.1-1l-1.5-0.5v-9.2h2.5c0.6,0,0.9,0.3,1,0.9c0.1,0.2,0.2,1.1,0.3,2.5c0.1,1.4,0.2,2.3,0.2,2.3
			c2.6,0.9,4.6,1.4,6.2,1.4c1.6,0,2.9-0.2,3.8-0.5c0.9-0.3,1.7-0.8,2.4-1.4c1.3-1.2,1.9-2.8,1.9-4.9c0-1.9-0.9-3.5-2.8-4.5
			c-0.8-0.5-1.7-0.9-2.8-1.2c-3.3-1-5.4-1.7-6.5-2.2s-2-1.1-2.8-1.8c-1.8-1.6-2.7-3.9-2.7-6.9c0-2.8,1-5,2.9-7
			c2.1-2,4.8-3.1,8.2-3.1c3.4,0,6.8,0.6,10.3,2v8.5h-2.5c-0.6,0-1-0.3-1.1-0.9c0-0.1-0.2-1.6-0.4-4.6c-2.3-0.6-4.3-1-6-1
			c-2.2,0-3.9,0.5-5.1,1.6c-1.1,1-1.7,2.5-1.7,4.1c0,1.8,0.9,3.2,2.8,4.3c0.8,0.5,1.8,0.9,2.9,1.3c3.1,1,5.2,1.8,6.5,2.3H497.8z"/>
		<path d="M506.7,869.4c0.5,0.1,0.8,0.5,0.8,0.9v2.3h-0.9h-2.8h-1.6c-0.9,0-1.5-0.4-1.9-1.1l-9.5-13.1c-0.3-0.4-0.6-0.7-0.9-0.9
			c-0.3-0.2-0.8-0.3-1.5-0.3h-3.3v11.6c0,0,2.5,0.5,2.9,0.6c0.5,0.1,0.8,0.5,0.8,0.9v2.2h-3.7h-5h-3.7v-2.2c0-0.5,0.3-0.8,0.8-0.9
			c0.5-0.1,3-0.6,3-0.6v-29.2c0,0-2.5-0.5-3-0.6c-0.5-0.1-0.8-0.5-0.8-0.9v-2.3h3.7h9.9c2.4,0,4.4,0.3,6,0.7c1.7,0.5,3.1,1.1,4.2,2
			c1.1,0.9,1.9,2,2.5,3.2c0.5,1.2,0.8,2.7,0.8,4.3c0,1.3-0.2,2.5-0.6,3.6c-0.4,1.1-1,2.2-1.8,3.1c-0.8,0.9-1.7,1.7-2.8,2.3
			c-1.1,0.6-2.4,1.2-3.8,1.5c0.6,0.4,1.1,0.8,1.6,1.5l7.9,10.9C504.2,869,506.3,869.3,506.7,869.4L506.7,869.4z M489.5,853.6
			c1.4,0,2.7-0.2,3.8-0.5c1.1-0.4,2-0.9,2.8-1.5c0.7-0.6,1.3-1.3,1.7-2.3c0.4-0.9,0.6-1.9,0.6-3c0-2.2-0.7-3.8-2.2-4.9
			c-1.4-1.1-3.5-1.6-6.4-1.6h-5v13.8H489.5L489.5,853.6z"/>
		<path class="st1" d="M546.9,771.4v29.2c1.6,0.3,2.7,0.5,3.1,0.6c0.4,0.1,0.6,0.4,0.6,0.9v2.2h-12.3v-2.2c0-0.5,0.2-0.9,0.7-1
			l3-0.6v-29.2c-1.6-0.3-2.7-0.5-3.1-0.6c-0.4-0.1-0.6-0.4-0.6-0.9v-2.2h12.3v2.2c0,0.5-0.3,0.9-0.8,1L546.9,771.4z"/>
		<path d="M563,870.5v2h-10.6v-2c0-0.5,0.3-0.7,0.7-0.8l2.1-0.6l-2.9-7.4h-15.8l-2.9,7.4l2.1,0.6c0.5,0.1,0.7,0.4,0.7,0.8v2h-10.5
			v-2c0-0.5,0.3-0.7,0.7-0.8l2-0.6l13.3-33.2h5l13.3,33.2l2,0.6C562.7,869.8,563,870.1,563,870.5z M551,858.2l-5.4-14.1
			c-0.4-0.9-0.8-2-1.1-3.4c-0.4,1.5-0.7,2.7-1,3.5l-5.5,14.1H551z"/>
		<path d="M610.5,864.5c-0.1-0.7-0.1-1.6-0.1-2.6v-22.2c-2-0.3-3.1-0.6-3.4-0.6c-0.5-0.1-0.8-0.4-0.8-0.9v-2.3h4.2h4.4h3.7v2.3
			c0,0.5-0.3,0.8-0.8,0.9l-2.9,0.6v32.9h-2.5c-0.7,0-1.2-0.3-1.7-0.9l-21.3-27.7c0.1,0.9,0.1,1.6,0.1,2.4v22.4
			c2,0.3,3.2,0.6,3.4,0.6c0.5,0.1,0.7,0.4,0.7,0.9v2.2h-12.2v-2.2c0-0.5,0.3-0.8,0.8-0.9l2.9-0.6v-29.2c-1.6-0.3-2.6-0.5-2.9-0.6
			c-0.5-0.1-0.8-0.5-0.8-1v-2.2h6.2c0.4,0,0.8,0,1,0.2c0.2,0.1,0.5,0.4,0.8,0.7l21.2,27.7V864.5z"/>
		<g>
			<path class="st1" d="M618.4,802.4v2h-10.6v-2c0-0.5,0.3-0.7,0.7-0.8l2.1-0.6l-2.9-7.4H592l-2.9,7.4l2.1,0.6
				c0.5,0.1,0.7,0.4,0.7,0.8v2h-10.5v-2c0-0.5,0.3-0.7,0.7-0.8l2-0.6l13.3-33.2h5l13.3,33.2l2,0.6
				C618.1,801.7,618.4,801.9,618.4,802.4z M606.4,790l-5.4-14.1c-0.4-0.9-0.8-2-1.1-3.4c-0.4,1.5-0.7,2.7-1,3.5l-5.5,14.1H606.4z"/>
		</g>
		<path d="M670.5,835.9v8.1H668c-0.6,0-0.9-0.2-1-0.5s-0.3-1.4-0.5-3.4h-8.6v28.8c0,0,0.2,0,0.6,0.1c1.3,0.3,2.2,0.4,2.6,0.5
			c0.4,0.1,0.5,0.4,0.5,0.9v2.2h-12.4v-2.2c0-0.5,0.3-0.9,0.9-1c0.6-0.1,1.5-0.3,2.8-0.6v-28.8h-8.7c-0.2,1.9-0.4,3.1-0.5,3.4
			c-0.1,0.4-0.4,0.5-1,0.5h-2.5v-8.1h27.7h1.7H670.5z"/>
		<path class="st1" d="M666,796.3c-0.1-0.7-0.1-1.6-0.1-2.6v-22.2c-2-0.3-3.1-0.6-3.4-0.6c-0.5-0.1-0.8-0.4-0.8-0.9v-2.3h4.2h4.4
			h3.7v2.3c0,0.5-0.3,0.8-0.8,0.9l-2.9,0.6v32.9h-2.5c-0.7,0-1.2-0.3-1.7-0.9l-21.3-27.7c0.1,0.9,0.1,1.6,0.1,2.4v22.4
			c2,0.3,3.2,0.6,3.4,0.6c0.5,0.1,0.7,0.4,0.7,0.9v2.2h-12.2v-2.2c0-0.5,0.3-0.8,0.8-0.9l2.9-0.6v-29.2c-1.6-0.3-2.6-0.5-2.9-0.6
			c-0.5-0.1-0.8-0.5-0.8-1v-2.2h6.2c0.4,0,0.8,0,1,0.2c0.2,0.1,0.5,0.4,0.8,0.7l21.2,27.7V796.3z"/>
	</g>
	<path d="M207.4,360.5"/>
	<path d="M239.8,367.3"/>
	<path d="M718.3,532.4c-14.8,15.5-26.8,22.5-33.7,20.3c-10.9-1.1-8.3-22.7,6.3-56.8c6.9-14.9,14.7-32.5,24.6-52.9
		c16.8-33.7,19.2-40.6,5.4-42.1c-30.5-1.3-76.1,36.7-119.6,94.5c18.4-40,40.4-76.5,66.5-109.6c3.3-4.3-0.8-6.2-5.1-6.1
		c-21.1,0.9-34.1,4-37.9,10c-15.5,21.1-36.6,65.4-63.8,133c-11.8,29.3-18,45.8-18.1,49.4c-0.7,3.7,2.8,4.1,8.9,1.7
		c12.9-4.7,18.5-10.7,26.9-28.3c15.9-27.4,33.7-51.7,52.8-72.9c19.9-21.8,34.9-34.4,46.1-37.5c3.2-0.7,5.6-0.8,7.2-0.3
		c2.3,2-1.3,12.6-10.9,31.9c-8,16.6-14.4,29.9-18.8,41.1c-17.7,43.1-11.7,67.5,13.1,62.8c16.9-3,36-14.4,55.3-33.7
		C721.9,535.5,720.1,533.9,718.3,532.4z"/>
</g>
</svg>
